# xmcd
#
# Track frame offsets:
#	150
#	21600
#	50007
#	67742
#	88381
#	108781
#	130946
#	153247
#	179872
#	199095
#	228335
#	244133
#	255468
#	272298
#	289961
#
# Disc length: 4149 seconds
#
# Revision: 2
# Processed by: cddbd v1.5.2PL0 Copyright (c) Steve Scherf et al.
# Submitted via: audiograbber 1.83.01
#
DISCID=d810330f
DTITLE=Golden Earring - Complete Studio Recordings [CD 28) - Non-Album Tracks 2
DTITLE=[remastered 2017]
DYEAR=2017
DGENRE=Rock
TTITLE0=The Golden Earring - Another 45 Miles
TTITLE1=The Golden Earring - I Can't Get A Hold On Her
TTITLE2=Golden Earring - Holy Holy Life
TTITLE3=Golden Earring - Jessica
TTITLE4=Golden Earring - Stand By Me
TTITLE5=Golden Earring - The Song Is Over
TTITLE6=Golden Earring - Instant Poetry
TTITLE7=Golden Earring - Lucky Number
TTITLE8=Golden Earring - Babylon
TTITLE9=Golden Earring - I Need Love
TTITLE10=Golden Earring - Can't Talk Now
TTITLE11=Golden Earring - Only A Matter Of Time
TTITLE12=Golden Earring - I Do Rock 'n Roll
TTITLE13=Golden Earring - Triple Treat
TTITLE14=Golden Earring - Annie
EXTD=
EXTT0=
EXTT1=
EXTT2=
EXTT3=
EXTT4=
EXTT5=
EXTT6=
EXTT7=
EXTT8=
EXTT9=
EXTT10=
EXTT11=
EXTT12=
EXTT13=
EXTT14=
PLAYORDER=
